<svg width="260" height="260" viewBox="0 0 260 260" fill="none" xmlns="http://www.w3.org/2000/svg">
<rect width="260" height="260" rx="50" fill="url(#paint0_linear_4_7)"/>
<rect width="260" height="260" rx="50" fill="url(#paint1_linear_4_7)"/>
<path fill-rule="evenodd" clip-rule="evenodd" d="M34.5 88C34.5 59.005 58.0051 35.5 87 35.5H172C200.995 35.5 224.5 59.0051 224.5 88V173C224.5 201.995 200.995 225.5 172 225.5H87C58.005 225.5 34.5 201.995 34.5 173V88ZM87 50.5C66.2893 50.5 49.5 67.2893 49.5 88V173C49.5 193.711 66.2893 210.5 87 210.5H172C192.711 210.5 209.5 193.711 209.5 173V88C209.5 67.2893 192.711 50.5 172 50.5H87Z" fill="white"/>
<circle cx="185" cy="75" r="10" fill="white"/>
<path fill-rule="evenodd" clip-rule="evenodd" d="M116.126 83.7745C114.079 84.6652 113.677 85.5309 113.677 89.0479C113.677 91.1442 113.964 91.9564 115.068 92.994L116.46 94.3008V108.029C116.46 117.095 116.238 122.399 115.806 123.648C115.447 124.688 111.034 132.173 106 140.282C100.966 148.39 95.0911 157.862 92.9429 161.33C88.6731 168.226 88.1617 170.359 90.0239 173.51C92.1782 177.156 90.3728 176.999 130.095 176.999C162.424 176.999 166.255 176.906 167.639 176.089C169.785 174.822 171 172.519 171 169.719C171 167.633 170.063 165.827 163.399 155.063C159.219 148.31 154.997 141.533 154.018 140.003C148.739 131.76 144.945 125.325 144.374 123.648C143.955 122.417 143.73 116.965 143.73 108.029V94.3008L145.121 92.994C146.226 91.9564 146.513 91.1442 146.513 89.0479C146.513 83.1815 145.955 82.9745 130.262 83.0018C121.108 83.0179 117.398 83.221 116.126 83.7745ZM142.06 88.5128C142.06 88.802 141.371 89.3695 140.53 89.7728L138.999 90.5072V107.189C138.999 126.771 138.295 124.094 147.234 138.474C162.309 162.725 165.814 168.443 166.13 169.296C166.318 169.801 166.133 170.677 165.72 171.243C165.005 172.22 163.295 172.277 130.836 172.412C95.2024 172.558 94.194 172.499 93.756 170.225C93.6602 169.728 99.4849 159.869 106.7 148.316C115.033 134.974 120.123 126.264 120.653 124.444C121.323 122.138 121.457 118.531 121.338 106.041L121.19 90.505L119.66 89.7717C118.818 89.3689 118.129 88.802 118.129 88.5128C118.129 88.199 122.949 87.987 130.095 87.987C137.24 87.987 142.06 88.199 142.06 88.5128ZM137.804 132.785C137.467 133.664 138.791 135.98 147.479 149.693C150.467 154.411 153.225 158.375 153.608 158.502C155.759 159.216 154.299 156.062 147.265 144.802C143.046 138.047 139.263 132.393 138.858 132.238C138.453 132.082 137.979 132.329 137.804 132.785ZM155.443 161.669C154.578 162.711 154.893 164.771 156.026 165.48C157.251 166.247 159.681 165.542 159.998 164.328C160.495 162.428 159.471 160.866 157.729 160.866C156.838 160.866 155.809 161.227 155.443 161.669Z" fill="white"/>
<defs>
<linearGradient id="paint0_linear_4_7" x1="52" y1="-37.5" x2="108" y2="130" gradientUnits="userSpaceOnUse">
<stop stop-color="#2E52F3"/>
<stop offset="1" stop-color="#EF207B"/>
</linearGradient>
<linearGradient id="paint1_linear_4_7" x1="24" y1="254" x2="233" y2="12" gradientUnits="userSpaceOnUse">
<stop offset="0.0399899" stop-color="#FBAB48"/>
<stop offset="0.273243" stop-color="#FC2C46"/>
<stop offset="0.617429" stop-color="#FC2C46" stop-opacity="0"/>
</linearGradient>
</defs>
</svg>
